<?xml version="1.0" encoding="UTF-8"?>
<svg xmlns="http://www.w3.org/2000/svg" xmlns:xlink="http://www.w3.org/1999/xlink" width="519px" height="446px" viewBox="0 0 519 446">
  <!-- Generator: Sketch 53 (72520) - https://sketchapp.com -->
  <title>DT-2-Converge diverge</title>
  <desc>Created with Sketch.</desc>
  <g id="DT-2-Converge-diverge" stroke="none" stroke-width="1" fill="none" fill-rule="evenodd">
    <g id="IDEO-Logo-Copy-12" transform="translate(230.500000, 432.000000)" fill="#ED943E">
      <path d="M21.4066972,0.554531747 L15.4561831,0.554531747 L15.4561831,13.1045056 L21.2888592,13.1045056 C25.0651901,13.0611457 27.6664085,10.3332565 27.6664085,6.81078551 C27.6664085,3.32599133 25.1189014,0.650934002 21.4066972,0.554531747 L21.4066972,0.554531747 Z M21.2980493,10.9445058 L21.2980493,10.9426114 L17.6405775,10.9426114 L17.6405775,2.71284773 L21.3319507,2.71284773 C23.7295563,2.77115215 25.2904507,4.49649993 25.2904507,6.84467364 C25.2904507,9.20400306 23.7152606,10.9030402 21.2980493,10.9445058 L21.2980493,10.9445058 Z" id="Fill-1"></path>
      <polyline id="Fill-2" points="12.2404507 2.75978595 12.2404507 0.554531747 0.0631056338 0.554531747 0.0631056338 2.75978595 5.05702817 2.75978595 5.05702817 10.8992514 0.0631056338 10.8992514 0.0631056338 13.1045056 12.2404507 13.1045056 12.2404507 10.8992514 7.24775352 10.8992514 7.24775352 2.75978595 12.2404507 2.75978595"></polyline>
      <polyline id="Fill-3" points="42.6132535 2.7505246 42.6132535 0.554531747 30.3382887 0.554531747 30.3382887 13.1045056 42.6132535 13.1045056 42.6132535 10.9068289 32.539838 10.9068289 32.539838 7.92656794 40.4027183 7.92656794 40.4027183 5.73078557 32.539838 5.73078557 32.539838 2.7505246 42.6132535 2.7505246"></polyline>
      <path d="M51.2621972,0.00158693626 C47.5661268,0.00158693626 44.5709577,3.05909601 44.5709577,6.82783481 C44.5709577,10.6001519 47.5661268,13.6559771 51.2621972,13.6559771 C54.9570423,13.6559771 57.9536408,10.6001519 57.9536408,6.82783481 C57.9536408,3.05909601 54.9570423,0.00158693626 51.2621972,0.00158693626 L51.2621972,0.00158693626 Z M51.2621972,11.3000154 C48.8429437,11.3000154 46.8809507,9.29830046 46.8809507,6.82783481 C46.8809507,4.36094742 48.8429437,2.35902199 51.2621972,2.35902199 C53.6810423,2.35902199 55.6434437,4.36094742 55.6434437,6.82783481 C55.6434437,9.29830046 53.6810423,11.3000154 51.2621972,11.3000154 L51.2621972,11.3000154 Z" id="Fill-4"></path>
    </g>
    <text id="Divergent-and-conver" font-family="Sentinel-BookItalic, Sentinel" font-size="16" font-style="italic" font-weight="300" fill="#000000">
      <tspan x="143.484" y="420">Divergent and convergent thinking</tspan>
    </text>
    <g id="Group-89" transform="translate(0.000000, 0.052632)">
      <path d="M239.37,44.8125 C237.436,41.5975 231.871,39.8995 228.633,38.3175 C223.404,35.7635 218.027,33.5695 212.541,31.6375 C207.375,29.8175 201.322,41.2335 206.041,42.8955 C210.66,44.5225 215.207,46.3235 219.649,48.3895 C220.871,48.9575 222.084,49.5465 223.289,50.1485 C199.327,62.0355 175.364,73.9215 151.402,85.8085 C111.744,105.4805 72.086,125.1535 32.428,144.8255 C23.39,149.3095 14.35,153.7925 5.312,158.2765 C2.25,159.7955 -0.165,164.0665 0.009,167.4625 C0.179,170.7705 2.592,172.0965 5.52,170.6445 C30.432,158.2865 55.344,145.9295 80.255,133.5715 C119.913,113.8995 159.571,94.2275 199.229,74.5545 C208.267,70.0705 217.307,65.5875 226.345,61.1045 C226.754,60.9005 227.151,60.6455 227.533,60.3525 C225.998,63.4315 224.205,66.4075 222.76,68.9975 C221.66,70.9655 220.314,75.0915 222.887,76.5765 C225.42,78.0395 228.451,74.8015 229.515,72.8975 C232.176,68.1305 234.606,63.2225 236.702,58.1785 C238.154,54.6815 241.639,48.5845 239.37,44.8125" id="Fill-1" fill="#231F20"></path>
      <path d="M516.1375,198.8633 C508.1035,196.3563 500.0695,193.8483 492.0345,191.3413 C487.4105,189.8983 481.8075,201.4383 487.5625,203.2343 C492.0635,204.6383 496.5645,206.0433 501.0645,207.4473 C477.7425,219.0163 454.4195,230.5853 431.0975,242.1553 C391.4395,261.8273 351.7815,281.4993 312.1235,301.1723 C303.0845,305.6553 294.0465,310.1393 285.0075,314.6223 C281.9465,316.1413 279.5305,320.4133 279.7045,323.8083 C279.8745,327.1163 282.2865,328.4433 285.2155,326.9903 C310.1275,314.6333 335.0385,302.2753 359.9515,289.9183 C399.6095,270.2453 439.2665,250.5733 478.9245,230.9013 C487.9625,226.4173 497.0015,221.9333 506.0405,217.4493 C506.4525,217.2453 506.8535,216.9863 507.2385,216.6903 C505.9085,221.8213 504.1325,226.8383 501.9035,231.6243 C500.9345,233.7043 500.9525,237.4983 503.7875,237.9553 C506.8205,238.4433 509.1305,234.5703 510.1445,232.3923 C514.3275,223.4123 517.1525,213.4843 518.4585,203.6523 C518.7555,201.4133 518.4115,199.5723 516.1375,198.8633" id="Fill-3" fill="#231F20"></path>
      <path d="M236.7538,319.2153 C232.3808,308.6623 227.9788,298.1213 223.5508,287.5913 C220.9428,281.3923 212.6328,290.8373 214.5278,295.3443 C216.8008,300.7463 219.0448,306.1603 221.3028,311.5693 C167.0698,284.9903 111.8688,260.4433 57.5738,233.9903 C40.6778,225.7583 23.8778,217.3303 7.2248,208.6153 C3.1998,206.5083 -2.2352,216.0693 1.7248,218.1413 C59.7548,248.5113 119.5818,275.2163 178.7498,303.2493 C192.3478,309.6923 205.9068,316.2183 219.4058,322.8653 C215.2538,324.7653 211.1818,326.8403 207.1968,329.1113 C204.5858,330.6003 202.4428,334.0093 202.6008,337.0723 C202.7398,339.8023 204.8698,341.2593 207.3768,339.8303 C214.9898,335.4903 222.8708,331.8393 231.1418,328.9363 C234.3678,327.8043 238.2718,322.8783 236.7538,319.2153" id="Fill-5" fill="#231F20"></path>
      <path d="M516.1307,153.3579 C514.5457,146.0619 514.6027,138.3719 512.2657,131.2439 C510.2027,124.9509 501.7207,134.3489 503.2437,138.9959 C504.4887,142.7949 505.0027,146.8029 505.5207,150.7689 C449.7737,123.2939 392.9417,98.0919 337.0717,70.8709 C320.1757,62.6389 303.3747,54.2109 286.7227,45.4959 C282.6967,43.3889 277.2617,52.9489 281.2227,55.0219 C339.2517,85.3929 399.0787,112.0969 458.2467,140.1299 C472.7327,146.9929 487.1727,153.9529 501.5447,161.0519 C497.9587,162.2649 494.3727,163.4779 490.7877,164.6909 C487.8537,165.6839 485.6427,168.6699 485.1287,171.6929 C484.7717,173.8029 485.5957,177.3919 488.5847,176.3799 C495.6997,173.9729 503.5587,172.2199 510.3327,168.9829 C516.8447,165.8699 517.4937,159.6409 516.1307,153.3579" id="Fill-7" fill="#231F20"></path>
      <path d="M258.0594,0 L259.6254,371.737" id="Stroke-9" stroke="#231F20" stroke-width="4" stroke-linecap="round" stroke-dasharray="8,12,8,12,8,12"></path>
      <path d="M206.9803,174.6606 C207.0773,175.8316 208.0943,176.8166 209.1403,177.0006 C210.1493,177.4696 211.6463,176.4396 212.3803,176.1006 C214.6103,175.0726 216.9173,174.2556 219.2203,173.4006 C220.0993,173.0746 221.8103,173.3586 222.6403,172.8606 C223.7913,172.7966 223.7733,172.4176 224.4403,171.9606 C224.5063,171.2396 224.5643,170.4006 224.0813,169.8006 C223.8153,169.4806 223.4483,169.3986 223.1803,169.0806 C220.7443,169.3536 218.3153,169.7386 215.9803,170.7006 C215.1053,171.0616 213.3923,172.0266 212.7413,171.9606 C212.2363,171.6666 211.8013,169.6416 212.2013,169.0806 C212.6753,168.2556 213.9023,168.3316 214.9003,168.0006 C216.5933,167.4386 218.8613,166.9006 220.6613,166.3806 C221.9043,166.0206 223.2393,166.4796 224.0813,166.0206 C226.2783,164.9316 224.9903,162.0046 222.2813,162.4206 C219.0893,162.9106 215.7133,164.4466 212.3803,164.7606 C212.5603,162.9606 212.7413,161.1606 212.9203,159.3606 C216.0393,158.9606 218.5193,158.2046 221.3803,157.9206 C222.3823,157.8206 223.7973,158.2906 224.8003,157.7406 C225.2813,157.2606 225.7603,156.7806 226.2413,156.3006 C226.1003,155.7626 226.1263,155.4246 225.8803,155.0406 C225.3513,154.1376 224.4573,154.3566 223.1803,154.1406 C222.4153,154.0116 221.4493,154.5406 220.6613,154.6806 C218.7533,155.0186 215.7853,155.4656 213.2813,155.5806 C213.3453,153.7816 213.4533,153.5606 212.7413,152.3406 C211.8273,152.0756 210.4553,151.3766 209.5013,152.1606 C209.0833,152.2946 209.0983,152.3476 208.7813,152.5206 C208.8403,153.5406 208.9003,154.5606 208.9603,155.5806 C208.1123,155.6856 208.1683,155.8926 207.7013,156.3006 C207.7763,157.8256 208.3993,157.6116 208.7813,158.4606 C209.0943,159.1596 208.4503,164.9706 208.2413,165.3006 C208.1393,166.1516 207.9543,166.1106 207.3403,166.3806 C207.2793,168.0586 207.6913,167.5226 208.0603,168.7206 C208.0613,168.7226 208.0603,173.7606 208.0603,173.7606 C208.0603,173.7606 206.9863,174.6556 206.9803,174.6606" id="Fill-11" fill="#231F20"></path>
      <path d="M192.2206,154.1406 C192.3116,153.9796 192.2686,153.5556 192.0406,153.2406 C191.7586,152.5396 190.6636,152.1426 189.8806,151.9806 C188.8876,152.5986 187.7566,152.7436 186.8216,153.4206 C184.4366,155.1456 180.4126,163.1806 182.5006,168.0006 C183.1536,169.5076 184.5166,169.9366 185.7416,170.8806 C188.4386,170.5516 193.4256,168.2386 194.7416,166.5606 C195.4706,166.9126 196.7916,170.1266 196.3616,170.8806 C196.4296,172.7716 197.7156,172.8506 198.5206,173.9406 L200.1406,173.9406 C200.7246,173.3356 201.2016,172.7976 201.7606,172.1406 C201.5156,171.4016 200.9596,170.9536 200.6806,170.3406 C199.9536,168.7416 199.8766,166.8246 198.8806,165.4806 C199.0236,164.1156 199.2476,164.8156 200.3216,164.4006 L201.5806,163.5006 C201.7766,162.7236 202.0686,162.3316 201.5806,161.7006 C201.3106,161.0196 199.5066,160.0756 198.5206,160.2606 C198.1856,160.3236 197.5866,160.7516 197.2606,160.8006 C196.6006,160.7406 195.9406,160.6806 195.2816,160.6206 C194.7026,160.8096 193.9636,161.7366 193.6606,162.2406 C192.2766,162.2236 190.5476,162.0466 189.7006,162.6006 L189.3406,162.6006 C189.3226,163.0566 189.3186,163.2676 189.1606,163.5006 C189.2826,164.2416 189.5526,164.6026 190.0606,164.9406 C189.5686,166.1526 187.5786,166.3006 186.6406,167.1006 L186.1006,167.1006 C185.3846,163.3016 186.9086,158.7646 188.8006,156.8406 C189.7746,155.8496 191.7746,155.6326 192.2206,154.1406" id="Fill-13" fill="#231F20"></path>
      <path d="M165.2206,162.2407 L165.0406,162.2407 C164.8456,161.3867 164.6456,159.9457 164.3206,159.1807 C165.2866,158.7167 166.4466,158.2337 167.5606,157.9207 C168.5486,157.6427 169.6686,157.8577 170.4416,157.3807 C170.5606,157.4407 170.6806,157.5007 170.8006,157.5607 C169.9986,159.0087 168.5706,160.4867 167.2006,161.3407 C166.5656,161.7367 165.7566,161.7687 165.2206,162.2407 M178.5406,168.1807 C175.1166,167.3297 170.8376,166.7197 168.6406,164.5807 L168.4606,164.5807 C169.0256,163.5297 170.9316,162.9607 171.8806,162.2407 C172.9506,161.4287 173.4806,160.1787 174.2206,159.0007 C174.6256,158.3567 175.6716,157.1517 175.3006,156.3007 C174.9206,150.9987 164.0176,156.6797 162.1596,154.1407 C161.1576,154.1577 160.1986,154.0837 159.6406,154.5007 C159.0646,154.7237 158.3476,155.4147 158.7406,156.4807 C158.8446,156.7627 159.3356,156.8077 159.4606,157.0207 C160.2866,158.4247 160.6636,160.8557 161.0796,162.4207 C161.8666,165.3667 161.3396,169.7127 161.6206,172.3207 C162.2406,172.4567 163.4996,173.1567 163.9606,173.5807 C165.0076,173.4607 165.2306,172.9367 165.9416,172.5007 C166.0176,171.5147 165.9436,168.3107 165.4006,167.4607 C165.4726,167.0907 165.4456,167.1137 165.5796,166.9207 C165.6386,166.8207 168.2796,168.0757 168.8206,168.3607 C170.6856,169.3397 172.7476,169.8417 174.9416,170.7007 C175.6186,170.9667 176.2736,171.9947 177.4606,171.6007 C177.8806,171.3007 178.3006,171.0007 178.7206,170.7007 C178.8206,170.4737 178.9376,170.1577 179.0796,169.9807 C178.9526,169.1437 178.6696,168.9597 178.5406,168.1807" id="Fill-15" fill="#231F20"></path>
      <path d="M153.3407,171.2407 C153.8207,170.7607 154.3007,170.2807 154.7807,169.8007 C154.6457,168.8137 154.2937,168.6267 153.8807,168.0007 C152.9817,167.8807 152.0807,167.7607 151.1807,167.6407 C150.5017,167.7987 150.1697,168.3377 149.7407,168.5407 L148.8407,168.5407 C147.7697,168.8927 146.3317,169.4497 145.2407,169.8007 C143.7067,170.2937 142.6277,170.1317 141.6407,170.8807 C141.0847,170.8717 140.7187,170.8177 140.3807,170.7007 C140.2607,169.5607 140.1407,168.4207 140.0207,167.2807 C141.9457,167.2297 142.8497,166.4537 144.1607,165.8407 C146.9337,164.5437 150.7417,163.7197 153.3407,163.3207 C153.4887,162.8437 153.7637,162.1057 154.0607,161.7007 C153.8657,160.7117 153.3007,160.7037 152.8007,160.0807 L150.2807,159.9007 C150.1607,160.0807 150.0407,160.2607 149.9207,160.4407 C148.8657,160.9927 147.3697,161.3547 146.3207,161.7007 C144.3767,162.3417 142.1217,162.4237 140.5607,163.5007 C140.0937,163.4647 139.9487,163.4207 139.6607,163.3207 C139.6267,162.4357 139.3317,161.4467 139.8407,160.8007 C140.3477,160.1567 142.9457,160.0517 143.9807,159.7207 C144.9827,159.4007 146.6447,158.9067 147.5807,158.6407 L150.8207,158.4607 C151.5027,158.2267 151.9617,157.4757 152.6207,157.2007 C152.7167,155.8507 152.6317,155.2057 151.3617,154.8607 C149.8217,153.9087 147.4047,155.3307 145.9607,155.7607 C145.1917,155.9897 139.7747,157.1647 139.3007,157.0207 C139.1207,156.8407 138.9407,156.6607 138.7607,156.4807 C138.0337,156.2077 136.6467,156.4137 136.0607,156.3007 C135.7927,156.7027 135.6877,156.8497 135.1607,157.0207 C134.9677,158.2527 135.5407,160.2697 135.7007,161.7007 C135.9317,163.7697 135.7497,166.6947 136.2407,168.9007 C136.5827,170.4357 135.7717,171.9677 136.4207,172.8607 C136.7657,173.8127 137.6797,173.9217 138.2207,174.6607 C142.4997,174.0437 145.9657,172.9147 149.5607,171.7807 C150.7737,171.3977 152.2117,171.7897 153.3407,171.2407" id="Fill-17" fill="#231F20"></path>
      <path d="M93.2206,168.7207 C92.2926,169.3947 91.1386,169.7267 90.3406,170.5207 L89.8006,170.5207 C89.6016,169.4567 89.9646,168.3867 89.6206,166.9207 C89.1116,164.7567 88.6916,162.0027 88.7206,159.5407 C91.0916,159.5147 96.6446,158.8567 98.2606,160.0807 L98.6206,160.2607 C98.8006,163.1947 95.1756,167.3007 93.2206,168.7207 M102.4006,161.3407 C102.5196,156.7327 96.7206,156.1467 92.6806,156.4807 C91.4606,156.5817 89.9246,155.9317 89.0806,156.4807 C87.4546,156.3967 87.8866,155.5627 86.9206,155.0407 C86.3806,154.9207 85.8406,154.8007 85.3006,154.6807 C84.9796,154.9087 84.2006,155.0797 83.8616,155.2207 C83.5956,155.8327 83.3536,156.2057 83.8616,156.6607 C83.6806,156.8407 83.5006,157.0207 83.3206,157.2007 C83.5196,158.4667 84.3006,158.5357 84.7606,159.3607 C85.0426,159.8667 85.1796,161.0677 85.3006,161.5207 L85.3006,163.6807 C85.6266,164.9677 85.4956,166.2297 85.8406,167.6407 C85.9006,168.9607 85.9606,170.2807 86.0216,171.6007 L86.0216,174.6607 C86.2876,175.2747 87.9476,176.2037 88.5406,175.9207 C90.4116,175.8577 91.0026,173.9417 92.1406,173.0407 C93.0196,172.3457 94.1176,172.0537 95.0216,171.4207 C97.3376,169.7947 99.1446,167.6297 100.7816,165.3007 C101.3286,164.5207 102.8866,162.4117 102.4006,161.3407" id="Fill-19" fill="#231F20"></path>
      <path d="M108.3407,175.0205 C109.1037,175.0185 109.8647,174.9805 110.3207,174.6605 L110.6807,174.6605 C111.3457,171.8485 110.8117,170.0575 110.5007,167.4605 C110.3697,166.3645 110.6807,164.2025 110.6807,162.7805 C110.6807,161.2505 111.1927,157.9405 110.5007,156.8405 C110.0467,155.8395 109.1057,155.9105 107.9807,155.5805 C107.5547,155.9105 106.9627,156.2185 106.5407,156.4805 C106.3967,159.8345 108.0237,170.3565 106.3617,172.8605 C106.5197,174.3455 107.6227,174.1605 108.3407,175.0205" id="Fill-21" fill="#231F20"></path>
      <path d="M118.2411,157.9204 C116.5011,157.8944 115.5951,158.0394 114.6401,158.6404 C114.8871,161.2594 117.8681,162.1494 119.1401,163.8604 C120.1021,165.1534 121.6661,167.2114 122.3811,168.5404 C122.8201,169.3584 122.6411,170.8104 123.2811,171.4204 C123.7861,171.9024 124.1531,171.6524 124.5411,172.3204 C125.4181,172.3454 126.0901,172.3564 126.5201,171.9604 C127.2561,171.5754 128.1711,169.7544 127.9611,168.7204 C127.9181,168.5094 127.5541,168.1884 127.6001,167.8204 C127.8521,165.8164 128.8511,163.5784 129.4001,161.7004 C129.7311,160.5694 129.5591,159.2284 130.1211,158.2804 C130.1101,157.2124 129.9191,157.1004 129.5811,156.4804 C128.5921,156.2504 128.2871,156.1464 127.2411,156.1204 C126.9361,156.3464 126.4361,156.4174 126.1611,156.6604 C125.9801,156.7204 125.8011,156.7804 125.6211,156.8404 C125.7281,159.3524 125.5991,162.7804 124.3611,164.5804 L124.1801,164.7604 C123.3871,163.5134 122.1441,161.6644 121.1211,160.6204 C120.3041,159.7884 118.8251,158.9844 118.2411,157.9204" id="Fill-23" fill="#231F20"></path>
      <path d="M418.6893,154.5259 C418.7413,155.8069 419.7053,156.6389 420.9623,156.7549 C421.4003,159.3279 421.5003,161.4579 422.0103,163.8099 C422.1313,164.3679 421.9423,164.8939 422.1473,165.2549 C421.8163,166.6179 421.1683,165.6139 420.3153,166.2799 C419.9953,166.5299 419.9733,166.9219 419.5683,167.1579 C419.8673,168.9179 422.2683,170.5509 424.8843,170.0199 C428.2103,169.3439 431.3353,168.2409 434.3333,167.2439 C435.4453,166.8729 436.5433,167.1769 437.7673,166.8069 C438.3183,166.4639 438.8693,166.1199 439.4183,165.7759 C439.5883,165.0889 439.7103,164.5079 439.2933,163.9719 C439.0863,163.4709 438.7853,163.2219 438.2413,163.0399 C437.7253,162.6669 436.6423,162.5259 435.7273,162.7839 C434.9413,163.0049 434.0063,163.8379 433.1663,164.1469 C431.2213,164.8609 428.7493,164.8119 427.1683,165.9469 L426.2693,165.9199 C425.9963,164.6409 425.6123,163.3979 425.6733,161.7599 C427.7943,161.5179 429.2783,160.5649 430.9523,159.9379 C432.6193,159.3139 434.4623,158.9879 436.0383,158.4709 L437.8363,158.5259 C438.3603,158.3889 438.6763,157.9879 439.2973,157.8489 C439.4243,157.4509 439.4453,157.3779 439.6793,157.1399 C439.7123,155.1299 438.3483,154.1219 436.3323,154.6979 C434.7173,155.1599 432.6603,155.9909 431.0543,156.5199 L429.6103,156.6559 C428.1673,157.1549 427.0943,158.1419 425.0633,158.1399 C425.0983,156.9609 425.0833,156.6639 424.9543,155.7959 C426.8473,154.7709 429.4823,154.3219 431.8563,153.8429 L434.0143,153.9079 C434.7073,153.7209 434.8193,153.1029 435.4873,152.8719 C435.4863,151.7809 435.2193,151.6249 435.0063,150.8769 C434.5223,150.7499 433.6833,150.1169 433.4093,150.1079 C432.6863,150.0829 431.6663,150.5919 431.0483,150.7569 C429.9633,150.9039 428.8783,151.0519 427.7933,151.1989 C426.7033,151.5259 425.6133,151.8539 424.5223,152.1809 C423.9513,150.8359 423.1823,150.4459 421.1533,150.4589 C420.8493,150.7579 420.4673,150.9629 420.0513,151.1459 C419.8523,152.0749 420.0233,152.5029 420.3463,153.3159 C419.9203,153.4829 419.4963,153.6499 419.0713,153.8169 C418.9643,154.0399 418.8373,154.3539 418.6893,154.5259" id="Fill-25" fill="#231F20"></path>
      <path d="M382.0301,157.9214 C381.4741,157.8954 381.1101,157.8304 380.7761,157.7034 C380.7761,156.7894 380.5151,155.5054 380.6721,155.1794 C381.3551,153.9294 386.8551,152.9444 389.1991,153.0954 C388.7891,155.3124 386.5111,156.6114 384.7451,157.4634 C384.1381,157.7554 382.9351,158.5554 382.0301,157.9214 L382.0301,157.9214 Z M397.0411,167.7384 C397.0741,164.4804 394.6681,165.4884 392.4611,164.3584 C390.4691,163.3394 388.1741,161.9824 386.4521,160.5754 L386.2721,160.5704 C386.8531,159.6064 388.6271,159.3004 389.5701,158.6894 C391.0021,157.7614 391.7601,155.9824 393.1031,155.0144 C393.2751,153.7404 393.8181,152.6624 393.0201,151.7704 C392.2091,149.2244 383.2811,149.6504 381.5111,151.2424 C380.0831,151.1244 379.9881,150.4214 379.0251,150.0874 C377.8511,149.6784 377.0021,150.4274 376.1311,150.5394 C376.0681,150.5984 376.0071,150.6564 375.9451,150.7144 C375.9431,151.4104 375.9591,151.6294 376.2661,151.9844 C376.0961,152.6414 375.7721,152.8814 375.3291,153.2164 C375.3101,154.3564 376.5081,155.1154 376.8501,156.5044 C377.3961,158.7134 376.8731,163.9554 377.4781,165.5274 C377.3561,167.8694 378.5811,168.4124 380.2541,169.0324 C380.7281,168.6054 381.4401,168.4384 381.9061,168.0024 C382.4461,167.3114 381.5031,163.9784 381.5451,162.0484 C384.5681,162.3984 386.2351,164.7364 388.4531,165.8584 C390.2291,166.7564 392.3831,167.2964 393.4041,168.8894 C394.5091,168.9974 395.5461,169.2614 396.2941,168.6164 C396.8221,168.4294 396.7901,168.3684 397.0351,167.9184 L397.2201,167.7444 L397.0411,167.7384 Z" id="Fill-27" fill="#231F20"></path>
      <path d="M404.1336,165.4316 L403.5936,165.4146 C403.5686,164.4096 402.9826,161.8146 403.7356,160.7376 C404.3516,160.7396 405.9526,162.1336 407.3216,161.2056 L407.5016,161.2116 C407.0956,163.0256 405.0936,164.0776 404.1336,165.4316 M413.1126,160.3006 C413.6516,159.3786 415.0896,159.8926 415.4736,159.6506 C416.8076,159.6316 416.6696,159.1116 417.3106,158.4456 C417.2416,157.8176 417.1356,157.5266 416.8086,157.1706 C416.5156,156.3536 415.8336,156.3516 415.2276,155.8616 C412.9326,156.0556 407.1436,159.2316 404.9066,157.7116 C404.7436,157.5686 405.4006,156.4586 405.6756,156.1136 C406.5976,154.9556 408.8886,153.7076 410.1016,152.6456 C410.0666,151.6556 409.8006,151.5926 409.6166,150.8306 C408.5366,150.5406 407.4936,150.4246 406.3886,150.3726 C403.5926,154.1046 397.9816,156.7996 399.6676,164.2166 C400.0136,165.7336 399.6986,166.6456 400.2796,167.8366 C400.8576,169.0226 402.5056,169.3946 403.2786,169.9076 C406.7346,169.5466 408.2046,165.9116 410.2996,163.9966 C411.0126,165.5526 412.1136,167.5446 412.2956,169.4596 C412.9226,169.7426 413.5876,169.9876 414.0686,170.4136 C415.4606,170.4716 416.2766,170.0716 416.6296,169.0506 C416.9956,168.1826 414.1016,163.4206 413.5926,162.2956 C413.3006,161.6486 413.5726,160.7686 413.1126,160.3006" id="Fill-29" fill="#231F20"></path>
      <path d="M354.161,168.4248 C354.452,169.3098 355.275,169.5478 355.911,170.0988 C359.534,170.1188 362.752,168.4818 365.714,167.5128 C367.303,166.9928 369.496,167.2308 370.614,166.2208 C370.748,166.0448 370.871,165.5088 371.002,165.3318 C370.974,163.5938 369.825,163.9228 368.907,163.1078 C367.306,163.1958 366.98,163.8078 365.991,164.2798 C364.823,164.8378 362.765,165.2108 361.63,165.5888 C360.53,165.9558 359.385,165.8038 358.544,166.3968 C358.131,166.3248 358.099,166.2998 357.829,166.1948 C357.762,165.7408 357.755,164.5808 357.529,164.2048 C357.851,162.9258 359.214,163.1428 360.277,162.6668 C363.521,161.2148 367.932,161.1268 370.45,159.7328 C370.658,158.7618 370.418,158.5558 370.336,157.5688 C369.999,157.3798 369.849,157.3058 369.632,157.0068 C366.321,156.8988 363.992,158.0548 361.836,158.7528 C360.504,159.1828 359.249,159.0458 358.205,159.7228 C357.792,159.6518 357.761,159.6258 357.491,159.5218 L357.556,157.3618 C357.928,156.8418 360.381,156.4958 361.192,156.2118 C362.26,155.8378 363.708,155.0218 364.84,154.7008 C365.951,154.3858 367.323,154.9688 368.264,154.6248 C369.134,154.3048 369.564,153.4378 370.466,153.2498 C370.195,152.5478 369.814,151.9068 369.626,151.2438 C369.032,151.0458 368.437,150.8478 367.843,150.6498 C367.343,150.9808 366.633,150.9068 366.027,151.1348 C363.461,152.1018 359.224,152.4688 357.119,153.9278 C356.456,153.7968 356.189,153.6118 355.882,153.1698 C354.974,153.3328 354.107,153.5408 353.341,153.8138 C352.877,155.6078 353.147,157.6958 353.521,159.7618 C354.145,163.2008 352.707,166.1838 354.161,168.4248" id="Fill-31" fill="#231F20"></path>
      <path d="M347.5028,162.2812 L347.5458,160.8422 C348.4298,158.0282 350.0328,154.9412 349.6168,151.9002 C349.2808,151.7112 349.1308,151.6372 348.9138,151.3392 C347.2798,151.2682 346.5848,151.4462 345.6528,151.9612 C345.2978,153.5652 344.1418,160.8962 343.1908,161.9712 C343.0658,162.2782 343.1488,162.1462 342.9998,162.3252 C341.2598,158.4522 338.8798,154.9272 336.8488,151.3352 C335.9508,151.2552 335.8218,151.0522 335.0598,150.9212 C334.8448,151.0592 334.7548,151.0562 334.3348,151.0792 C334.0778,151.3382 333.7348,151.5862 333.4128,151.7712 C333.2878,152.0782 333.3728,151.9462 333.2228,152.1262 C333.2738,154.1442 334.9968,154.9462 335.7968,156.3452 C337.1608,158.7332 338.0698,161.0342 339.3628,163.4762 C339.7078,164.1262 340.5768,164.8452 340.9228,165.5042 C341.5848,166.7692 341.7278,167.9812 342.6188,168.9772 C343.3978,169.6222 344.9088,169.6942 345.6778,169.0692 C347.3118,167.8592 345.9408,166.9052 346.5168,165.1332 C346.7528,164.4052 347.2768,163.0002 347.5028,162.2812" id="Fill-33" fill="#231F20"></path>
      <path d="M329.5711,165.7016 C330.2161,165.4616 330.2021,165.0266 330.6831,164.6546 C330.5811,163.1916 329.8451,162.3406 329.5331,161.0186 C329.0801,159.1076 328.9941,157.0676 328.6221,155.4086 C328.3471,154.1886 328.7501,152.8856 328.1851,151.9736 C327.7741,151.6606 327.3631,151.3486 326.9531,151.0356 C324.9741,150.9306 324.8501,151.2746 323.8611,152.0236 C324.0921,153.2156 324.9291,158.0916 325.4541,158.9146 L325.4271,159.8136 C322.8471,158.0376 320.7411,155.8186 318.2181,154.0136 C317.2581,153.3266 316.4061,151.8226 315.2361,151.4026 C314.0881,150.9916 313.1481,151.7286 312.3421,151.8556 C312.1931,153.7356 313.2331,154.5146 313.6391,156.5766 L313.5631,159.0956 C313.8791,160.7156 314.0221,163.7706 313.9241,165.0496 C313.7931,165.4056 313.6621,165.7616 313.5311,166.1186 C313.6281,167.0166 314.3441,167.8076 314.7201,168.4946 C315.2061,168.6156 315.5491,168.7976 315.9791,168.5336 C316.8491,168.4616 316.8961,168.2136 317.6151,168.0416 C318.2401,165.8296 317.8601,164.1816 317.4341,162.0936 C317.1681,160.7836 317.7211,159.3326 317.3581,158.6696 L317.3901,157.5906 C318.7221,158.1196 319.6491,159.5976 320.7271,160.3926 C322.1871,161.4696 323.7841,162.2236 325.1381,163.4076 C325.7451,163.9366 326.0381,164.9386 326.6981,165.4346 C327.0921,165.7306 327.2931,165.6216 327.5821,166.0016 C328.4431,166.0876 328.9681,166.2256 329.5711,165.7016" id="Fill-35" fill="#231F20"></path>
      <path d="M296.1288,163.9717 C296.1708,163.0227 296.0988,162.5217 295.8278,161.9817 C295.3378,161.9627 295.0038,161.9507 294.7538,161.7697 C292.2068,161.7267 292.4938,163.1777 291.0798,164.1797 C289.2148,165.5017 287.8998,166.4777 285.4048,167.2497 C281.9608,162.2107 285.6908,157.3217 289.5528,155.1297 C290.3718,154.6637 290.8838,155.2607 291.1718,155.1787 C291.5918,155.0587 291.9408,154.5187 292.4578,154.3167 C292.5648,154.0937 292.6908,153.7807 292.8398,153.6077 C292.6938,152.5257 291.9848,152.2817 290.7188,152.2837 C289.8718,152.4977 289.0248,152.7127 288.1778,152.9267 C284.0918,155.1687 279.9238,158.8927 281.3208,165.3257 C281.6908,167.0297 281.9128,168.2077 283.0058,169.1587 C286.9068,172.5507 293.2068,165.7487 295.9378,164.3257 C296.0638,164.0187 295.9788,164.1517 296.1288,163.9717" id="Fill-37" fill="#231F20"></path>
      <path d="M302.4041,164.8818 C302.1691,164.5868 302.3001,164.6698 301.8751,164.5058 C301.5791,162.9618 301.3981,160.7918 302.3821,159.6588 C302.7801,158.7588 302.7871,159.3668 303.6621,158.9768 C304.3081,158.6898 304.6631,157.8828 304.9761,157.2158 C306.0081,157.2198 307.1211,157.1988 307.6641,157.6568 C308.0581,157.9368 308.2021,158.0468 308.3571,158.5788 C309.6701,160.9058 304.2751,164.2578 302.4041,164.8818 M305.7831,154.3588 C305.7671,152.7558 304.3991,152.9928 303.3071,152.8428 C301.1891,154.9158 296.8851,160.7568 298.6201,164.9478 C299.1681,166.2718 300.6241,166.6338 301.6021,167.5588 C305.0541,167.6848 308.9211,164.8698 310.3851,162.9618 C311.0461,162.1018 311.3401,160.8958 312.0921,160.1318 C312.2691,156.2188 309.7111,154.4298 305.7831,154.3588" id="Fill-39" fill="#231F20"></path>
      <path d="M296.8592,163.6338 L297.0452,163.4598 L296.6842,163.4478 C296.7912,163.7628 296.7142,163.6258 296.8532,163.8138 L296.8592,163.6338 Z" id="Fill-41" fill="#231F20"></path>
      <path d="M399.8807,174.1338 C399.6767,174.3478 399.4237,174.5198 399.1607,174.6738 C399.1877,175.5048 399.3187,176.0138 399.7007,176.4738 C399.9687,177.0078 400.4417,177.0868 400.7807,177.5538 C402.3567,177.5468 402.4377,177.0648 403.3007,176.4738 C403.2627,175.8598 403.2147,175.5548 402.9407,175.2138 C402.3667,174.5018 401.1497,174.1338 399.8807,174.1338" id="Fill-43" fill="#231F20"></path>
      <path d="M384.9403,188.8935 C384.8993,187.8435 384.4633,185.3185 383.8613,184.3935 C383.4613,183.7815 382.5863,183.6245 382.0603,183.1335 C379.4913,183.0955 377.2563,184.1395 376.4803,185.8335 L375.9403,185.8335 C375.9263,184.0455 375.6823,182.1695 375.5813,180.7935 C375.4943,179.6215 376.0003,178.0735 375.5813,177.3735 C375.1853,176.2375 374.3413,176.5125 373.4203,175.9335 C372.7253,175.9525 372.5053,175.9745 372.1613,176.2935 C371.6973,176.9345 371.9803,178.3945 371.9803,179.7135 C371.9813,182.8715 372.2983,185.7885 372.8803,188.3535 C373.1663,189.6095 372.6223,190.9565 373.2413,191.7735 C373.7203,192.4675 374.6293,192.4745 375.2203,193.0335 C375.7353,192.9685 375.9983,192.9155 376.3003,192.6735 C377.4623,192.2005 377.1133,191.1385 377.7413,190.1535 C378.4333,189.0665 379.3493,187.9855 380.4403,187.2735 C380.5013,187.2135 380.5603,187.1535 380.6213,187.0935 C380.9993,188.1015 380.8283,190.3645 380.8003,192.1335 C381.1613,192.5535 381.5203,192.9735 381.8803,193.3935 C382.5223,193.7705 382.8813,193.5765 383.3213,194.1135 C384.7093,193.9085 384.6673,193.1695 385.4803,192.4935 C385.3573,192.0235 385.0453,191.7425 384.9403,191.4135 C384.6503,190.5065 384.9643,189.5085 384.9403,188.8935" id="Fill-45" fill="#231F20"></path>
      <path d="M336.5204,184.0337 C334.3134,184.6547 330.6494,187.7177 330.5814,190.5137 C329.2394,190.7457 326.1134,191.7247 324.6404,190.6937 C324.2114,190.4297 327.4954,187.3797 328.2414,186.9137 C328.2364,186.4227 328.2334,186.0887 328.0604,185.8337 C327.6694,184.7457 326.7934,184.9567 325.9014,184.3937 C324.6454,184.5897 323.2434,186.1757 322.6614,187.0937 L322.3004,187.0937 C322.3124,184.6527 322.2894,180.5807 321.7604,179.5337 C321.3964,178.4397 320.1084,178.1117 318.8804,177.9137 C318.5784,178.2407 318.2904,178.4807 317.8004,178.6337 C317.8204,179.7597 318.1304,180.2907 318.3404,180.9737 C318.6984,182.1357 318.4684,183.6937 318.7014,184.7537 C319.6874,189.2457 317.4254,192.9007 319.2414,196.6337 C320.0824,196.8357 321.0064,197.3407 321.4014,197.5337 C322.3914,197.2747 322.2184,196.4837 322.8404,195.9137 C322.7064,195.1657 322.4544,194.2387 322.3004,193.3937 L322.4804,193.3937 C323.1374,193.1167 324.1054,193.8687 325.1804,193.9337 C327.4934,194.0737 329.7544,193.9727 331.4804,194.4737 L332.5604,194.4737 C333.6034,194.9727 334.6214,196.8137 336.7014,196.4537 C338.7264,196.1037 342.2194,193.9227 343.9014,192.8537 C343.9824,190.5477 342.4994,190.0017 340.6614,189.7937 C339.8674,190.7507 338.8654,191.6577 337.7814,192.3137 C337.2404,192.6407 336.6054,192.6437 336.1614,193.0337 C335.6054,193.0247 335.2384,192.9717 334.9014,192.8537 C334.8004,192.6277 334.6844,192.3097 334.5414,192.1337 L334.5414,190.5137 C338.3344,189.7577 338.1374,188.8947 340.4804,187.0937 C340.5014,186.1947 340.4214,186.0327 340.4804,185.4737 C339.5764,184.9947 338.1984,183.5617 336.5204,184.0337" id="Fill-47" fill="#231F20"></path>
      <path d="M441.4608,184.9336 C441.5258,184.4196 441.5788,184.1566 441.8208,183.8536 C442.6718,182.6316 445.1008,181.8086 446.3208,180.9736 C446.2608,180.5536 446.2008,180.1336 446.1408,179.7136 C445.5388,179.4366 444.9638,179.0746 444.5208,178.6336 C442.3058,178.6416 438.5418,180.7546 437.6808,182.0536 C437.3978,182.4806 437.4558,182.9616 437.1408,183.3136 C437.2398,186.6046 440.8768,187.6746 443.2608,188.7136 C443.2008,188.7736 443.1408,188.8336 443.0808,188.8936 C441.5448,190.1426 438.9988,189.3046 436.7808,189.2536 C436.4378,189.6166 435.9258,190.0496 435.5208,190.3336 C435.6898,190.6296 436.4088,192.1626 436.6008,192.3136 C437.1598,192.7556 437.3168,192.2536 437.8608,193.0336 C441.7338,193.2106 445.0218,192.3216 447.7608,190.5136 C447.9688,189.7306 448.3578,188.9936 447.7608,188.3536 C447.3888,187.3866 442.7418,185.1186 441.4608,184.9336" id="Fill-49" fill="#231F20"></path>
      <path d="M434.0809,189.6138 C434.0709,187.9898 431.9559,186.6608 430.6609,187.6338 C429.6919,187.9208 429.7519,188.9238 429.0409,189.4338 C428.2729,189.9848 427.1409,189.9698 426.3409,190.5138 C425.0789,190.5068 425.2519,190.2668 424.7209,189.6138 C424.8369,187.6688 426.7199,188.0448 427.9609,187.2738 C429.1849,186.5128 430.0049,185.1478 431.2009,184.3938 C431.2779,182.2888 429.6919,181.1658 427.7809,181.1538 C427.1389,181.6268 426.0119,181.4858 425.2609,181.8738 C423.0429,183.0188 420.9579,185.1528 420.7609,188.3538 C416.7429,186.1748 417.5739,188.0478 415.0009,189.9738 C414.4099,190.4168 413.6459,190.6538 413.2009,191.2338 C412.2329,190.8948 412.3049,190.1568 411.7609,189.4338 C412.0039,185.9918 415.2269,185.0948 417.5209,183.6738 C417.3259,181.8878 415.5389,180.8148 413.5599,181.5138 C411.6989,182.1708 406.3989,186.8728 408.1609,189.4338 C408.2679,191.4478 410.2149,193.1248 411.5809,193.9338 C412.1969,194.2988 413.0209,194.2538 413.5599,194.6538 C415.6339,194.5048 420.5599,191.0708 420.7609,189.2538 C421.1989,189.7818 421.8939,190.6908 422.2009,191.2338 L422.2009,191.9538 C422.5619,192.4128 423.6599,192.5408 424.1809,192.8538 C428.0339,195.1718 431.5449,191.4518 434.0809,190.1538 C434.1039,189.6378 434.2079,189.8918 434.0809,189.6138" id="Fill-51" fill="#231F20"></path>
      <path d="M404.7411,193.5737 C405.0751,191.6957 404.1941,189.2367 403.8411,187.4537 C403.9011,187.1537 403.9611,186.8537 404.0201,186.5537 C403.8451,185.4367 403.6531,184.2157 403.6611,182.7737 C402.6191,182.2297 401.9101,181.6647 400.2411,181.6937 C400.0341,182.0407 399.8401,182.3517 399.5201,182.5937 C399.6951,186.0357 401.1711,189.8667 400.4211,192.8537 C401.1061,193.2967 402.1421,193.8977 402.7611,194.4737 C403.9661,194.4197 404.0461,194.0407 404.7411,193.5737" id="Fill-53" fill="#231F20"></path>
      <path d="M391.4207,190.6938 C389.6557,190.6328 390.0347,188.2638 390.8807,187.4538 C391.1177,187.0168 390.7967,187.3268 391.2407,187.0938 C391.5707,186.9188 392.1787,187.0738 392.6807,186.7338 L393.7607,186.7338 C393.8767,187.0448 393.7957,186.9098 393.9417,187.0938 C393.6447,189.1188 392.4087,189.4688 391.4207,190.6938 M397.5407,185.6538 C396.4527,185.0178 395.3997,183.9098 394.1207,183.4938 L391.6017,183.4938 C390.8147,183.1668 390.4347,182.6078 389.0807,182.5938 C388.2337,183.8938 386.8257,185.3658 386.3807,186.9138 C385.3847,190.3778 387.9347,193.1998 389.8007,193.9338 C392.9977,195.1908 397.7367,191.2098 397.9007,187.9938 C397.9427,187.1698 397.6927,186.5368 397.5407,185.6538" id="Fill-55" fill="#231F20"></path>
      <path d="M367.1209,185.4736 C367.0599,184.9936 367.0009,184.5136 366.9399,184.0336 C366.0659,183.5826 365.1189,183.0266 363.8809,182.9536 C363.1259,183.6096 361.9289,183.5116 361.0009,184.0336 C359.8679,184.6716 355.6709,188.9886 357.2209,191.4136 C357.3409,192.8116 358.7129,194.1666 359.9209,194.4736 C362.6949,196.3526 367.9799,192.1076 369.4609,190.6936 C369.4199,190.2766 369.4259,190.1856 369.2809,189.9736 C369.1839,189.0086 367.4309,187.9726 366.5809,188.5336 L365.6809,188.5336 L364.4209,190.1536 L361.5409,191.5936 C361.1709,191.5216 361.1939,191.5486 361.0009,191.4136 C360.8769,191.2756 360.7639,191.0126 360.6409,190.8736 C360.8809,187.6526 364.3429,186.2206 367.1209,185.4736" id="Fill-57" fill="#231F20"></path>
      <path d="M306.4608,190.5137 L306.4608,190.6937 L306.2808,190.6937 C306.5788,189.4527 307.2088,188.7637 307.7208,187.8137 L308.2608,187.8137 C307.9978,188.9477 307.3148,189.9607 306.4608,190.5137 M313.4808,191.2337 C313.1808,190.9337 312.8808,190.6337 312.5808,190.3337 C312.2788,189.6467 312.5848,188.3647 312.4008,187.9937 C312.1338,186.9307 311.1548,186.9387 310.4208,186.3737 C309.8848,186.4537 309.8138,186.4647 309.5218,186.7337 C308.3248,186.0467 308.2648,185.2647 306.1018,185.2937 C305.5018,185.7867 304.5608,186.0967 304.1208,186.7337 C303.2168,188.0467 301.5328,192.1797 302.5008,194.1137 C302.7578,194.6267 303.4218,195.0647 303.7608,195.5537 C304.3158,195.5347 304.4878,195.4477 304.6608,195.5537 C307.7478,195.5527 308.1038,193.3697 309.8808,192.1337 C309.9408,192.0737 310.0008,192.0137 310.0608,191.9537 C310.3208,192.5667 311.2388,195.8147 311.3208,195.9137 C311.6618,196.3247 312.2498,196.5257 312.5808,196.9937 C313.5258,196.9557 313.6678,196.9917 314.5608,197.1737 C314.9128,196.6457 315.2678,196.4657 315.4608,195.7337 C315.5098,195.6177 313.8718,191.8237 313.4808,191.2337" id="Fill-59" fill="#231F20"></path>
      <path d="M288.8211,189.4336 L288.8211,189.2536 C289.6081,189.7376 289.6561,193.9926 289.3611,194.8336 C290.0141,195.2946 291.2911,196.9736 292.6001,196.0936 C294.1401,195.5426 295.4141,191.9686 296.9211,190.8736 C297.3541,191.9666 297.3431,193.8656 296.9211,194.4736 C297.2231,196.2536 298.3871,195.9966 299.6211,196.8136 C300.4761,196.6966 300.6921,196.4376 301.2411,196.0936 C301.2871,191.9206 300.2061,188.3856 297.6401,186.1936 C297.0461,186.2246 296.2341,186.2866 295.8411,186.5536 C294.5891,187.0756 294.0601,189.1716 292.9611,189.9736 C292.9011,190.0336 292.8411,190.0936 292.7811,190.1536 C292.6321,189.6096 292.9441,188.8066 292.6001,187.9936 C292.3571,187.4176 291.8381,187.0336 291.7011,186.1936 C290.2671,186.0026 289.2961,185.3866 287.9211,186.0136 C287.4171,186.2436 287.2671,186.6906 286.6611,186.9136 C286.5181,186.9906 285.7411,186.8196 285.4011,186.5536 C284.8311,186.6556 284.8771,186.7116 284.5011,186.9136 C284.3511,190.0336 283.9891,193.1056 284.1401,196.2736 C284.5601,196.6936 284.9801,197.1136 285.4011,197.5336 C286.0451,197.5676 286.3831,197.6716 286.6611,197.5336 C287.3361,197.4686 287.3301,197.3936 287.7411,197.1736 C287.7101,194.1736 287.1931,191.0426 288.8211,189.4336" id="Fill-61" fill="#231F20"></path>
      <path d="M185.5018,179.4292 C185.2008,179.7292 184.9008,180.0292 184.6018,180.3292 L184.4218,180.5092 L184.6018,180.5092 C184.5878,182.3862 185.2708,182.2602 186.0418,183.2092 C187.0668,183.1942 187.4168,183.0092 188.0218,182.6692 C187.9758,181.9812 187.8128,181.6002 188.0218,181.2292 C187.8808,180.0282 186.6288,179.6112 185.5018,179.4292" id="Fill-63" fill="#231F20"></path>
      <path d="M168.2215,200.3091 C168.7615,199.2381 168.0475,196.0501 167.5015,194.9091 C167.3815,194.6591 166.8755,194.3771 166.7815,194.0091 C166.6315,193.4271 166.9495,193.0411 166.9615,192.9291 C167.1025,191.6011 166.3505,190.7631 165.8815,190.0491 C165.4985,189.9581 165.2305,189.8881 164.9815,189.6891 C163.0665,189.8351 161.1385,191.6441 160.3015,192.9291 L160.1215,192.9291 C160.1475,191.1411 160.9355,186.6271 160.6605,185.9091 C160.7015,183.8121 160.1855,183.9061 159.4015,182.8491 L158.3215,182.8491 C158.0855,183.2621 158.0195,183.3381 157.6015,183.5691 C157.4155,188.5001 157.0685,194.7761 157.4215,199.9491 C157.8795,200.1641 158.6165,200.3651 159.0415,200.6691 C159.5765,200.5881 159.6495,200.5781 159.9415,200.3091 C160.9175,199.9031 160.4275,199.4961 160.8415,198.5091 C161.4545,197.0491 162.4245,195.5391 163.5415,194.5491 C163.6015,194.4891 163.6605,194.4291 163.7215,194.3691 C164.1295,195.3671 164.6195,196.5961 164.8015,197.7891 C164.9055,198.4671 164.2285,198.9361 164.8015,199.7691 C165.1495,200.2751 165.9405,200.4581 166.4215,200.8491 C167.4215,200.8821 167.8285,200.8731 168.2215,200.3091" id="Fill-65" fill="#231F20"></path>
      <path d="M224.3817,188.6094 C224.2617,186.9574 223.5977,186.3914 222.9417,185.3694 C221.0867,185.4034 216.0347,189.1924 215.2007,190.4094 C214.8387,190.9394 214.8447,191.6734 214.4817,192.2094 C214.5197,195.2054 217.2197,195.9384 219.5217,196.7094 C219.2667,196.9214 218.8627,197.0274 218.6217,197.2494 C215.2427,197.1844 216.2187,197.4084 214.4817,198.6894 C214.6007,199.1854 214.6927,199.3764 214.6607,199.5894 C215.0947,200.9584 216.1247,200.8524 217.1817,201.5694 C217.6907,201.3744 217.8007,201.0224 218.2617,200.8494 C219.4647,200.3974 220.8407,200.5894 221.8607,199.9494 C222.8867,199.3064 223.9417,198.0054 225.1017,197.6094 C225.1957,196.7704 225.1837,196.3234 225.2807,195.6294 C223.4357,193.8284 221.3377,193.2514 218.2617,192.9294 C218.5437,191.4244 222.7747,188.9834 224.3817,188.6094" id="Fill-67" fill="#231F20"></path>
      <path d="M120.161,191.8491 L122.682,191.8491 L123.941,190.5891 C123.87,190.2191 123.896,190.2421 123.762,190.0491 C123.715,189.1321 123.553,189.1351 123.222,188.6091 C121.383,188.5941 118.435,188.4751 117.101,189.3291 L116.021,189.3291 C115.932,188.8491 115.891,187.4911 115.842,187.3491 C115.821,186.3471 115.652,186.2851 115.302,185.7291 C114.342,185.6691 113.382,185.6091 112.422,185.5491 C112.149,185.8951 112.03,185.9121 111.882,186.4491 C111.704,186.8051 111.897,187.3651 112.241,187.7091 C112.265,188.4841 112.376,189.7531 112.061,190.2291 C111.242,190.8181 109.762,190.6711 109.002,191.3091 C108.878,191.4471 108.765,191.7101 108.641,191.8491 C108.911,193.3201 110.008,193.4441 110.981,194.1891 C111.517,194.1081 111.589,194.0981 111.882,193.8291 C112.251,193.9011 112.228,193.8741 112.422,194.0091 C113.398,195.2711 112.709,199.4751 112.601,200.6691 C113.339,201.3641 114.194,201.9461 114.941,202.6491 C116.03,202.5251 116.171,201.9941 116.922,201.5691 C117.262,199.8071 116.585,198.5791 116.382,197.2491 C116.263,196.4691 116.504,194.6281 116.201,194.0091 C116.21,193.4531 116.265,193.0861 116.382,192.7491 C117.544,192.4991 119.042,192.1211 120.161,191.8491" id="Fill-69" fill="#231F20"></path>
      <path d="M183.8817,198.689 C184.3717,198.943 185.1477,199.356 185.5017,199.769 C186.1587,199.697 186.7437,199.576 187.1217,199.229 C187.7057,198.045 187.0027,192.485 187.3017,190.409 C187.4347,189.486 186.9987,188.798 187.3017,188.249 C187.1577,187.536 186.4437,186.876 185.8607,186.629 C185.6307,186.788 185.4167,186.796 184.9617,186.809 C184.5417,187.169 184.1217,187.529 183.7007,187.889 C184.3937,191.134 183.6897,195.558 183.8817,198.689" id="Fill-71" fill="#231F20"></path>
      <path d="M198.6414,194.0093 C198.5064,193.9293 197.8794,193.9593 197.5614,194.1893 C196.6664,194.5603 196.9534,195.0223 196.4814,195.8093 C195.9454,196.7053 194.5864,196.9563 193.7814,197.6093 C193.3664,197.5513 193.3334,197.5253 193.0614,197.4293 C193.0134,193.9523 195.7364,191.8253 198.4614,191.1293 C198.4594,190.3633 198.4264,189.4473 198.1014,188.9693 C197.8214,188.1623 197.0104,187.8723 196.1214,187.7093 C195.5494,188.3993 194.5054,188.7873 193.7814,189.3293 C191.8364,190.7843 190.9244,192.5343 190.0014,195.0893 C189.6534,196.0523 189.5004,197.4373 190.0014,198.5093 C190.6334,199.8633 192.0684,200.0643 193.0614,201.0293 C196.9794,201.0163 197.9524,198.6883 200.4414,197.2493 C200.3514,196.3983 200.2644,196.1083 200.4414,195.4493 C199.7894,195.0133 199.3424,194.4223 198.6414,194.0093" id="Fill-73" fill="#231F20"></path>
      <path d="M211.4217,194.0093 C211.1187,193.8563 210.8637,193.9233 210.5217,194.1893 C209.6577,194.6133 209.6197,195.6593 208.9007,196.1693 C207.9807,196.8233 206.7887,196.9423 205.8417,197.6093 C205.4267,197.5513 205.3947,197.5253 205.1217,197.4293 C205.1817,196.8893 205.2407,196.3493 205.3017,195.8093 C205.5317,195.5403 207.1677,195.2903 207.6417,195.0893 C208.9577,194.5293 209.8997,193.1153 211.0617,192.3893 C211.0927,191.1173 211.1147,189.9633 210.5217,189.3293 C210.1887,188.6473 208.9157,188.1503 208.0017,188.0693 C206.9227,188.8493 205.6017,189.0933 204.5817,189.8693 C203.9057,190.3833 203.6507,191.3313 203.1417,192.0293 C202.7267,192.5963 201.8677,193.1703 201.3417,193.6493 C201.3537,194.5443 201.6587,197.9403 202.0617,198.5093 C202.2407,199.7323 203.2777,199.8503 203.8607,200.6693 L206.2007,201.0293 C209.0457,200.5893 211.4207,198.5283 213.5817,197.2493 C213.5867,196.7243 213.5907,196.2683 213.4007,195.9893 C213.3177,194.7793 212.5627,194.1383 211.4217,194.0093" id="Fill-75" fill="#231F20"></path>
      <path d="M174.5213,195.8091 C174.2693,195.9821 173.9303,195.9901 173.4413,195.9891 C173.6213,195.1491 173.8013,194.3091 173.9813,193.4691 C174.8613,193.3881 175.3263,193.0571 175.7813,192.5691 C176.2493,192.6051 176.3923,192.6491 176.6813,192.7491 C176.5193,194.0911 175.6713,195.4361 174.5213,195.8091 M179.2013,190.9491 C178.9163,190.1261 178.6853,190.2431 177.9413,189.8691 C177.5523,189.6741 177.1093,189.1101 176.6813,188.9691 C175.5823,188.6061 174.5483,189.2371 173.6213,188.9691 C171.6903,190.9251 169.2943,193.2251 170.9213,197.0691 C171.3883,198.1741 171.7473,198.8641 172.9013,199.2291 C173.7233,199.6551 174.8513,199.3451 176.1413,199.2291 C176.7363,198.6291 177.7863,198.2661 178.3013,197.6091 C179.4843,196.1021 180.9193,192.8171 179.2013,190.9491" id="Fill-77" fill="#231F20"></path>
      <path d="M152.201,194.3691 C151.139,195.4811 150.005,197.0561 148.781,197.9691 C148.257,198.3611 147.776,198.4171 147.342,198.8691 C146.645,198.7451 146.643,198.7551 146.441,198.1491 C145.951,197.4341 146.265,196.8311 146.441,196.1691 C147.409,192.5341 147.809,193.4131 150.762,192.0291 C150.831,190.4001 150.362,189.8131 148.962,189.6891 C147.819,190.5491 146.248,190.7551 145.361,191.8491 C143.597,194.0251 143.018,198.1821 144.462,200.3091 C144.875,200.9181 145.724,201.2481 146.262,201.7491 L148.781,201.7491 C149.565,201.4161 154.097,197.6041 154.361,196.8891 C154.91,195.7201 153.2,194.7161 152.201,194.3691" id="Fill-79" fill="#231F20"></path>
      <path d="M132.2215,197.6089 C131.6175,197.5749 131.1405,197.5139 130.7815,197.2489 C128.8635,197.4199 129.0795,198.5489 127.9015,199.2289 C126.6565,199.9479 125.0725,200.0349 123.9415,200.8489 C123.5265,200.7909 123.4935,200.7659 123.2215,200.6689 C123.3415,199.9489 123.4605,199.2289 123.5815,198.5089 C126.6085,198.1929 129.7725,197.8469 130.6015,195.2689 C131.5475,193.8769 129.9185,191.4219 128.9815,191.1299 C127.9465,190.4159 126.3435,190.9139 125.5615,191.3089 C122.9655,192.6199 121.3565,194.3449 120.1605,197.0689 C119.8365,197.8089 118.7965,199.8709 119.2615,200.6689 C119.4065,202.0709 120.1145,202.1119 120.8805,202.8289 C123.5795,205.3509 127.5775,202.8529 130.0615,201.5689 C131.2325,200.9639 132.6595,200.9099 133.1205,199.5889 C133.3735,199.1369 132.5405,198.0889 132.2215,197.6089" id="Fill-81" fill="#231F20"></path>
      <path d="M106.661,192.9292 C106.575,191.9952 105.969,191.5302 105.222,191.3092 C104.605,190.8762 100.743,191.1572 100.002,191.6692 C97.606,191.8942 96.057,195.0872 96.222,197.4292 C92.976,196.6942 92.892,198.4302 90.101,199.0492 C89.916,198.9042 90.057,198.9822 89.741,198.8692 L89.741,197.6092 C91.626,197.4682 93.867,196.5362 95.141,195.2692 C95.663,194.7502 95.762,193.8772 96.222,193.2892 C95.988,192.5182 95.56,192.0742 94.781,191.8492 C92.577,190.1652 89.836,193.1292 88.661,193.8292 C88.287,194.0522 87.559,193.9602 87.222,194.1892 C86.159,195.0472 86.645,196.6782 85.781,197.9692 C86.415,202.6252 93.873,202.5032 96.401,199.5892 C96.759,199.1522 96.777,198.6902 96.582,198.1492 C97.277,198.3782 98.208,198.9892 98.561,199.5892 C100.748,199.6072 102.051,198.5512 102.881,197.2492 L103.241,197.2492 C103.406,197.6912 103.515,198.3442 103.781,198.6892 C103.703,201.5962 104.73,201.2122 106.121,202.4692 C106.871,202.4692 107.194,202.4482 107.561,202.1092 C109.444,199.5182 104.613,195.0942 106.661,192.9292" id="Fill-83" fill="#231F20"></path>
      <path d="M74.9813,196.1689 C73.6793,196.0339 72.4853,195.5309 71.7413,196.1689 C70.5063,196.8469 69.7043,198.4289 68.5023,199.2289 L68.3213,199.4089 C68.2613,199.3489 68.2013,199.2889 68.1413,199.2289 C68.1123,195.4259 69.6383,195.5839 71.2013,193.6489 C71.9513,193.6489 72.2743,193.6699 72.6413,194.0089 C73.1413,193.7739 73.2833,193.4059 73.7213,193.1089 C73.6403,192.0879 73.1093,191.7129 72.2813,191.4889 C71.7833,191.1489 70.5193,191.1189 69.7613,191.1289 C69.4293,191.5069 69.1253,191.3779 68.6813,191.6689 C66.3583,193.1929 63.7523,195.9979 64.9013,199.9489 C65.2013,200.4889 65.5023,201.0289 65.8013,201.5689 C66.4713,201.7459 67.1303,202.0689 67.6013,202.4689 L69.5823,202.4689 C70.8543,201.9559 71.5433,200.1399 72.6413,199.4089 L73.1813,199.4089 C73.9733,198.7879 74.6423,197.9749 75.3413,197.2489 C75.2313,196.6319 75.1313,196.6909 74.9813,196.1689" id="Fill-85" fill="#231F20"></path>
      <path d="M80.3817,202.4692 C81.3397,200.1222 82.3007,195.5812 84.3417,194.5492 C84.8207,194.4892 85.3017,194.4292 85.7807,194.3692 C86.0817,194.0692 86.3817,193.7692 86.6817,193.4692 C86.7227,193.0522 86.7167,192.9612 86.8607,192.7492 C86.5647,192.1502 86.3327,192.3562 85.7807,192.0292 C83.1157,190.4482 82.0027,192.8212 80.3817,193.8292 C80.2747,193.5202 80.3687,192.8412 80.2007,192.3892 C80.0617,192.0112 79.6657,191.9132 79.4817,191.4892 C78.5817,191.4292 77.6817,191.3692 76.7807,191.3092 C75.7107,193.4292 78.4077,198.5712 76.9617,200.8492 C77.3427,201.8672 78.5237,202.0152 79.1217,202.8292 C79.7997,202.7732 79.9357,202.6692 80.3817,202.4692" id="Fill-87" fill="#231F20"></path>
    </g>
  </g>
</svg>
